# xmcd
#
# Track frame offsets:
#	150
#	15426
#	29126
#	45046
#	59671
#	75102
#	90319
#	105318
#	120362
#	132954
#	146279
#	162368
#
# Disc length: 2334 seconds
#
# Revision: 1
# Processed by: cddbd v1.5.2PL0 Copyright (c) Steve Scherf et al.
# Submitted via: audiograbber 1.83.01
#
DISCID=81091c0c
DTITLE=Truck Stop - Willkommen in der Familie
DYEAR=1900
DGENRE=Country
TTITLE0=Das analoge Mädchen
TTITLE1=Sattel nicht gleich die Pferde
TTITLE2=Ich bin Dein Mann
TTITLE3=Keine Zeit
TTITLE4=Einfache Cowboys
TTITLE5=Willkommen in der Familie
TTITLE6=All das mag ich - Dich brauch´ich
TTITLE7=Der Lack ist ab
TTITLE8=Männer
TTITLE9=Ich bin Cowboy
TTITLE10=Spuren Deiner Liebe
TTITLE11=Country Music
EXTD=
EXTT0=
EXTT1=
EXTT2=
EXTT3=
EXTT4=
EXTT5=
EXTT6=
EXTT7=
EXTT8=
EXTT9=
EXTT10=
EXTT11=
PLAYORDER=
